<svg width="117" height="37" viewBox="0 0 117 37" fill="none" xmlns="http://www.w3.org/2000/svg">
<path d="M14.6799 22.48C13.6799 26.44 10.8799 28.32 7.47992 28.32C3.71992 28.32 0.919922 26.12 0.919922 22.52C0.919922 18.88 3.11992 17.12 8.79992 16.48C12.5599 16 14.6399 15.84 14.6399 13.8C14.6399 12 13.3599 10.24 10.3199 10.24C7.23992 10.24 5.47992 11.88 5.03992 15.04H1.39992C1.87992 9.68 5.51992 7.32 10.3199 7.32C15.9199 7.32 18.3599 10.16 18.3599 14.36V21.8L19.1199 28H15.3999L14.6799 22.48ZM4.75992 22.28C4.75992 24.12 6.27992 25.44 8.59992 25.44C12.5599 25.44 14.6399 22.8 14.6399 19.32V17.12C13.5999 18.08 11.9599 18.44 9.83992 18.68C6.27992 19.16 4.75992 20.2 4.75992 22.28Z" fill="black"/>
<path d="M21.5227 28V7.64H25.5227V28H21.5227ZM21.5227 5.96V0H25.5227V5.96H21.5227Z" fill="black"/>
<path d="M28.7493 28V7.64H32.7493V15.08C34.2693 9.48 35.9893 7.64 38.1493 7.64H40.4693V11.76H38.2293C34.7893 11.76 32.7493 14.28 32.7493 17.32V28H28.7493Z" fill="black"/>
<path d="M49.5924 28.16C44.7924 28.16 41.2324 24.36 41.2324 17.72C41.2324 11.12 45.1124 7.32 49.9524 7.32C53.4724 7.32 56.0724 9.56 57.1124 13.64V7.64H61.1124V26.8C61.1124 33.32 57.3124 36.44 51.5524 36.44C46.5524 36.44 42.9524 34.16 42.2724 29.52H46.0724C46.6324 31.84 48.4324 33.2 51.6324 33.2C54.6324 33.2 57.1124 31.6 57.1124 27.28V21.68C56.0324 25.84 53.2324 28.16 49.5924 28.16ZM51.1524 24.88C54.5124 24.88 57.1124 22.44 57.1124 17.72C57.1124 12.96 54.5524 10.56 51.2724 10.56C47.8724 10.56 45.3124 13.16 45.3124 17.72C45.3124 22.24 47.7524 24.88 51.1524 24.88Z" fill="black"/>
<path d="M77.4143 22.48C76.4143 26.44 73.6143 28.32 70.2143 28.32C66.4543 28.32 63.6543 26.12 63.6543 22.52C63.6543 18.88 65.8543 17.12 71.5343 16.48C75.2943 16 77.3743 15.84 77.3743 13.8C77.3743 12 76.0943 10.24 73.0543 10.24C69.9743 10.24 68.2143 11.88 67.7743 15.04H64.1343C64.6143 9.68 68.2543 7.32 73.0543 7.32C78.6543 7.32 81.0943 10.16 81.0943 14.36V21.8L81.8543 28H78.1343L77.4143 22.48ZM67.4943 22.28C67.4943 24.12 69.0143 25.44 71.3343 25.44C75.2943 25.44 77.3743 22.8 77.3743 19.32V17.12C76.3343 18.08 74.6943 18.44 72.5743 18.68C69.0143 19.16 67.4943 20.2 67.4943 22.28Z" fill="black"/>
<path d="M93.0302 28C88.7102 28 86.5102 25.6 86.5102 20.72V10.84H82.7102V7.64H84.3102C85.8302 7.64 86.8302 7 86.8302 5.28V0.880001H90.5102V7.64H96.2702V10.84H90.5102V20.88C90.5102 23.2 91.5102 24.48 93.9102 24.48H95.9502V28H93.0302Z" fill="black"/>
<path d="M107.208 28.32C101.448 28.32 97.248 24.48 97.248 17.88C97.248 11.36 101.608 7.32 107.168 7.32C113.208 7.32 117.208 11.8 116.848 18.56H101.208C101.448 22.96 103.848 25.2 107.328 25.2C109.888 25.2 111.968 23.84 112.848 21.04H116.648C115.408 26.04 111.408 28.32 107.208 28.32ZM101.288 16.16H112.848C112.568 12.32 110.208 10.32 107.208 10.32C104.088 10.32 101.768 12.32 101.288 16.16Z" fill="black"/>
</svg>
