<svg width="154" height="37" viewBox="0 0 154 37" fill="none" xmlns="http://www.w3.org/2000/svg">
<path d="M51.6799 22.48C50.6799 26.44 47.8799 28.32 44.4799 28.32C40.7199 28.32 37.9199 26.12 37.9199 22.52C37.9199 18.88 40.1199 17.12 45.7999 16.48C49.5599 16 51.6399 15.84 51.6399 13.8C51.6399 12 50.3599 10.24 47.3199 10.24C44.2399 10.24 42.4799 11.88 42.0399 15.04H38.3999C38.8799 9.68 42.5199 7.32 47.3199 7.32C52.9199 7.32 55.3599 10.16 55.3599 14.36V21.8L56.1199 28H52.3999L51.6799 22.48ZM41.7599 22.28C41.7599 24.12 43.2799 25.44 45.5999 25.44C49.5599 25.44 51.6399 22.8 51.6399 19.32V17.12C50.5999 18.08 48.9599 18.44 46.8399 18.68C43.2799 19.16 41.7599 20.2 41.7599 22.28Z" fill="black"/>
<path d="M58.5227 28V7.64H62.5227V28H58.5227ZM58.5227 5.96V0H62.5227V5.96H58.5227Z" fill="black"/>
<path d="M65.7493 28V7.64H69.7493V15.08C71.2693 9.48 72.9893 7.64 75.1493 7.64H77.4693V11.76H75.2293C71.7893 11.76 69.7493 14.28 69.7493 17.32V28H65.7493Z" fill="black"/>
<path d="M86.5924 28.16C81.7924 28.16 78.2324 24.36 78.2324 17.72C78.2324 11.12 82.1124 7.32 86.9524 7.32C90.4724 7.32 93.0724 9.56 94.1124 13.64V7.64H98.1124V26.8C98.1124 33.32 94.3124 36.44 88.5524 36.44C83.5524 36.44 79.9524 34.16 79.2724 29.52H83.0724C83.6324 31.84 85.4324 33.2 88.6324 33.2C91.6324 33.2 94.1124 31.6 94.1124 27.28V21.68C93.0324 25.84 90.2324 28.16 86.5924 28.16ZM88.1524 24.88C91.5124 24.88 94.1124 22.44 94.1124 17.72C94.1124 12.96 91.5524 10.56 88.2724 10.56C84.8724 10.56 82.3124 13.16 82.3124 17.72C82.3124 22.24 84.7524 24.88 88.1524 24.88Z" fill="black"/>
<path d="M114.414 22.48C113.414 26.44 110.614 28.32 107.214 28.32C103.454 28.32 100.654 26.12 100.654 22.52C100.654 18.88 102.854 17.12 108.534 16.48C112.294 16 114.374 15.84 114.374 13.8C114.374 12 113.094 10.24 110.054 10.24C106.974 10.24 105.214 11.88 104.774 15.04H101.134C101.614 9.68 105.254 7.32 110.054 7.32C115.654 7.32 118.094 10.16 118.094 14.36V21.8L118.854 28H115.134L114.414 22.48ZM104.494 22.28C104.494 24.12 106.014 25.44 108.334 25.44C112.294 25.44 114.374 22.8 114.374 19.32V17.12C113.334 18.08 111.694 18.44 109.574 18.68C106.014 19.16 104.494 20.2 104.494 22.28Z" fill="black"/>
<path d="M130.03 28C125.71 28 123.51 25.6 123.51 20.72V10.84H119.71V7.64H121.31C122.83 7.64 123.83 7 123.83 5.28V0.880001H127.51V7.64H133.27V10.84H127.51V20.88C127.51 23.2 128.51 24.48 130.91 24.48H132.95V28H130.03Z" fill="black"/>
<path d="M144.208 28.32C138.448 28.32 134.248 24.48 134.248 17.88C134.248 11.36 138.608 7.32 144.168 7.32C150.208 7.32 154.208 11.8 153.848 18.56H138.208C138.448 22.96 140.848 25.2 144.328 25.2C146.888 25.2 148.968 23.84 149.848 21.04H153.648C152.408 26.04 148.408 28.32 144.208 28.32ZM138.288 16.16H149.848C149.568 12.32 147.208 10.32 144.208 10.32C141.088 10.32 138.768 12.32 138.288 16.16Z" fill="black"/>
<path d="M1.10261 31.8975C1.19318 31.9879 1.32546 32.0217 1.44851 31.9858L15 28.0167L28.5515 31.9858C28.584 31.9954 28.6171 32 28.6499 32C28.7415 32 28.8307 31.9641 28.8974 31.8975C28.988 31.8071 29.0218 31.6744 28.9859 31.5516L25.0166 18.0001L28.9859 4.44873C29.0218 4.32585 28.988 4.19324 28.8974 4.10283C28.8065 4.01226 28.6742 3.97774 28.5515 4.01448L15 7.98355L1.44851 4.01448C1.32546 3.97774 1.19318 4.01226 1.10261 4.10283C1.01203 4.19324 0.978195 4.32585 1.01408 4.44873L4.98335 18.0001L1.01408 31.5516C0.978195 31.6744 1.01203 31.8071 1.10261 31.8975ZM5.68403 18.0986C5.70283 18.0343 5.70283 17.966 5.68403 17.9017L1.86584 4.86606L14.9016 8.68406C14.9658 8.70286 15.0342 8.70286 15.0984 8.68406L28.1342 4.86606L24.316 17.9017C24.2972 17.966 24.2972 18.0343 24.316 18.0986L28.1342 31.1342L15.0984 27.3162C15.0663 27.3068 15.0332 27.3021 15 27.3021C14.9668 27.3021 14.9337 27.3068 14.9016 27.3162L1.86584 31.1342L5.68403 18.0986Z" fill="black" stroke="black" stroke-width="2"/>
<path d="M19.5 18.0022C17.6018 16.9624 16.0398 15.4004 15 13.5C13.9602 15.4004 12.3982 16.9624 10.5 18C12.4004 19.0398 13.9624 20.6018 15 22.5C16.0398 20.6018 17.6018 19.0398 19.5 18.0022Z" fill="black"/>
</svg>
